# xmcd
#
# Track frame offsets:
#	180
#	23655
#	38766
#	56899
#	68690
#	84639
#	103262
#	124304
#	140277
#	151546
#	168025
#	186035
#	201972
#	218289
#	236083
#
# Disc length: 3273 seconds
#
# Revision: 1
# Processed by: cddbd v1.5.2PL0 Copyright (c) Steve Scherf et al.
# Submitted via: audiograbber 1.83.01
#
DISCID=c20cc70f
DTITLE=Glory Train - 064 Diatheke
DYEAR=2006
DGENRE=
TTITLE0=Dry My Mommy´s Tears  - Debbie Bennett
TTITLE1=Ain´t No Turning Back  - Rod Raines
TTITLE2=Memories  - Jeff Cumming
TTITLE3=Heavenly Home  - Shane Tecza
TTITLE4=Bible And Guitar  - Larry Cochran
TTITLE5=God Never Promised Me Sunshine  - Dave And Shirley
TTITLE6=I Spend A Lot Of Time There  - Delbert Brown
TTITLE7=One Holy Lamb  - The Lawsons
TTITLE8=He Went To Calvary  - Bob Mayfield
TTITLE9=Walking By The Rose  - Robert Shields
TTITLE10=Holdin On  - Twice Robin
TTITLE11=Where Will I Go, What Will I Do, When To Start  - Staria Moore
TTITLE12=Speak The Word  - Sharon Lee
TTITLE13=Destination Heaven - Julian And Bonnie
TTITLE14=Let Him In  - Esmie Vassell
EXTD=
EXTT0=
EXTT1=
EXTT2=
EXTT3=
EXTT4=
EXTT5=
EXTT6=
EXTT7=
EXTT8=
EXTT9=
EXTT10=
EXTT11=
EXTT12=
EXTT13=
EXTT14=
PLAYORDER=
